<svg width="24" height="24" viewBox="0 0 24 24" fill="none" xmlns="http://www.w3.org/2000/svg">
<path fill-rule="evenodd" clip-rule="evenodd" d="M4.28573 0C3.60375 0 2.94969 0.270917 2.46746 0.753154C1.98523 1.23539 1.7143 1.88945 1.7143 2.57143V17.861L0.0440035 22.8718C-0.0549256 23.1686 0.015696 23.4957 0.228255 23.7252C0.440815 23.9547 0.761547 24.0502 1.06505 23.9745L7.81982 22.2857H21.4286C22.1105 22.2857 22.7647 22.0149 23.2469 21.5326C23.7291 21.0504 24 20.3962 24 19.7143V2.57143C24 1.88943 23.7291 1.23539 23.2469 0.753154C22.7647 0.270917 22.1105 0 21.4286 0H4.28573ZM6.64286 8.30671C6.64286 7.71497 7.12255 7.23528 7.71429 7.23528H18C18.5918 7.23528 19.0714 7.71497 19.0714 8.30671C19.0714 8.89845 18.5918 9.37814 18 9.37814H7.71429C7.12255 9.37814 6.64286 8.89845 6.64286 8.30671ZM7.71429 12.9076C7.12255 12.9076 6.64286 13.3873 6.64286 13.979C6.64286 14.5707 7.12255 15.0504 7.71429 15.0504H14.5714C15.1632 15.0504 15.6429 14.5707 15.6429 13.979C15.6429 13.3873 15.1632 12.9076 14.5714 12.9076H7.71429Z" fill="#EFB75B"/>
</svg>
