<svg width="21" height="21" viewBox="0 0 21 21" fill="none" xmlns="http://www.w3.org/2000/svg">
<path d="M19.2912 0H1.53809C0.687663 0 0 0.671387 0 1.50146V19.3278C0 20.1579 0.687663 20.8333 1.53809 20.8333H19.2912C20.1416 20.8333 20.8333 20.1579 20.8333 19.3319V1.50146C20.8333 0.671387 20.1416 0 19.2912 0ZM6.18083 17.7531H3.08838V7.80843H6.18083V17.7531ZM4.6346 6.45345C3.64176 6.45345 2.84017 5.65186 2.84017 4.66309C2.84017 3.67432 3.64176 2.87272 4.6346 2.87272C5.62337 2.87272 6.42497 3.67432 6.42497 4.66309C6.42497 5.64779 5.62337 6.45345 4.6346 6.45345ZM17.7531 17.7531H14.6647V12.9191C14.6647 11.7676 14.6444 10.2824 13.0575 10.2824C11.4502 10.2824 11.2061 11.5397 11.2061 12.8377V17.7531H8.12175V7.80843H11.084V9.16748H11.1247C11.5356 8.38623 12.5448 7.56022 14.0462 7.56022C17.1753 7.56022 17.7531 9.61914 17.7531 12.2966V17.7531Z" fill="#969696"/>
</svg>
